<svg width="164" height="95" viewBox="0 0 164 95" fill="none" xmlns="http://www.w3.org/2000/svg">
<g clip-path="url(#clip0_619_1613)">
<path d="M160.344 57.4114H153.889C154.343 54.354 152.598 48.0353 141.999 47.22C128.751 46.2009 130.109 60.8085 141.999 61.8276C151.511 62.643 158.192 67.6028 160.344 69.9807H131.468C119.918 66.5836 117.88 49.2583 130.109 42.8037C139.893 37.6401 154.343 40.6522 160.344 42.8037V57.4114Z" fill="#201E1F"/>
<path d="M119.578 77.0591H126.865C126.353 80.1029 127.316 87.8531 139.281 88.665C154.238 89.6794 153.71 73.6769 140.288 72.6625C129.549 71.8506 126.423 66.9129 123.994 64.5454H152.176C165.215 67.9275 167.516 85.1755 153.71 91.6015C142.665 96.7427 126.353 93.7437 119.578 91.6015V77.0591Z" fill="#201E1F"/>
<path d="M0 44.8419V41.4448H36.0095C39.4066 42.3507 47.0162 46.6085 46.2009 53.6745C45.3874 60.7246 38.2403 65.1069 35.1712 65.9139C41.9117 66.3074 48.982 69.8808 49.598 78.8132C50.2774 88.6648 41.5582 92.7414 37.0287 94.1002H0V91.0428L7.13396 87.9854C7.24722 75.0764 7.40573 48.9185 7.13396 47.5596C6.86219 46.2008 2.26475 45.1817 0 44.8419Z" fill="#272123"/>
<path d="M19.3633 63.5262V47.8994H27.5164C29.4414 48.3524 33.3594 50.4133 33.6312 55.0334C33.903 59.6535 30.8002 62.6203 29.2149 63.5262H19.3633Z" fill="white"/>
<path d="M19.3633 87.6459V70.3206H30.9135C32.9518 70.8865 37.0963 73.378 37.368 78.8134C37.6398 84.2488 33.1782 86.9665 30.9135 87.6459H19.3633Z" fill="white"/>
<path d="M81.3447 54.9702L84.1589 52.6677C84.409 52.463 84.7691 52.463 85.0191 52.6677L87.8333 54.9702C88.1105 55.1969 88.1641 55.5997 87.9562 55.8909L86.7652 57.5582C86.6755 57.6831 86.6314 57.8346 86.6395 57.9879L87.9623 83.7867C87.9766 84.0653 87.819 84.3248 87.5649 84.4403L84.5183 85.825C84.3471 85.9031 84.1501 85.9058 83.9762 85.8338L80.6327 84.4403C80.3589 84.3262 80.1911 84.0476 80.2176 83.7527L82.5283 58.0019C82.5426 57.8401 82.4991 57.6784 82.4047 57.5463L81.2218 55.8909C81.0139 55.5997 81.0675 55.1969 81.3447 54.9702Z" fill="#E91E21"/>
<path d="M86.8847 50.5277L96.4048 43.6928C97.0217 43.2495 97.7908 44.0002 97.3621 44.6279L90.5271 54.6361C90.2737 55.0068 89.7369 55.0345 89.4475 54.6919L86.7624 51.5185C86.5062 51.2158 86.5626 50.759 86.8847 50.5277Z" fill="#272123"/>
<path d="M81.9513 50.5277L72.4312 43.6928C71.8143 43.2495 71.0452 44.0002 71.4739 44.6279L78.3089 54.6361C78.5624 55.0068 79.0991 55.0345 79.3885 54.6919L82.0736 51.5185C82.3298 51.2158 82.2734 50.759 81.9513 50.5277Z" fill="#272123"/>
<path d="M80.173 94.4401H79.9814C76.7235 94.4401 73.395 94.1894 70.5435 92.6145C64.7559 89.4192 57.752 82.2309 57.752 68.9617C57.752 61.1483 57.752 56.0526 65.9051 47.5598L72.0199 55.3732C69.1724 63.282 67.6218 82.0318 77.7372 87.6459C77.744 87.65 77.7508 87.6534 77.7576 87.6574L78.4744 88.0576C81.0121 89.3288 86.0486 90.5864 90.7041 87.6459L89.6849 94.4401H80.173Z" fill="#201E1F"/>
<path d="M87.9862 94.4401H88.1778C91.4356 94.4401 94.7641 94.1894 97.6157 92.6145C103.403 89.4192 110.407 82.2309 110.407 68.9617C110.407 61.1483 110.407 56.0526 102.254 47.5598L96.1393 55.3732C98.9867 63.282 100.537 82.0318 90.4219 87.6459C90.4151 87.65 90.4083 87.6534 90.4015 87.6574L89.6847 88.0576C87.1471 89.3288 82.1105 90.5864 77.4551 87.6459V94.1004L87.9862 94.4401Z" fill="#201E1F"/>
<path d="M70.3198 18.3446C79.5599 37.3685 83.9083 19.2504 84.248 7.81348V33.9713C79.6279 32.6125 70.7729 35.7832 66.2432 37.3685L58.7695 18.3446C69.0968 37.0967 70.546 26.1579 70.3198 18.3446Z" fill="#272123"/>
<path d="M98.1763 18.6842C88.9361 37.7081 84.5878 19.59 84.248 8.15308V33.9712C88.8681 32.6124 97.7231 36.1228 102.253 37.7081L109.726 18.6842C99.3992 37.4363 97.95 26.4975 98.1763 18.6842Z" fill="#272123"/>
<path d="M68.9622 14.9474C69.9003 14.9474 70.6608 14.1869 70.6608 13.2489C70.6608 12.3108 69.9003 11.5503 68.9622 11.5503C68.0241 11.5503 67.2637 12.3108 67.2637 13.2489C67.2637 14.1869 68.0241 14.9474 68.9622 14.9474Z" fill="#272123"/>
<path d="M84.5892 3.39712C85.5273 3.39712 86.2877 2.63665 86.2877 1.69856C86.2877 0.760472 85.5273 0 84.5892 0C83.6511 0 82.8906 0.760472 82.8906 1.69856C82.8906 2.63665 83.6511 3.39712 84.5892 3.39712Z" fill="#272123"/>
<path d="M99.5365 14.9474C100.475 14.9474 101.235 14.1869 101.235 13.2489C101.235 12.3108 100.475 11.5503 99.5365 11.5503C98.5984 11.5503 97.8379 12.3108 97.8379 13.2489C97.8379 14.1869 98.5984 14.9474 99.5365 14.9474Z" fill="#272123"/>
<path d="M112.445 15.6269C113.383 15.6269 114.143 14.8664 114.143 13.9283C114.143 12.9902 113.383 12.2297 112.445 12.2297C111.507 12.2297 110.746 12.9902 110.746 13.9283C110.746 14.8664 111.507 15.6269 112.445 15.6269Z" fill="#272123"/>
<path d="M56.7318 15.6269C57.6699 15.6269 58.4303 14.8664 58.4303 13.9283C58.4303 12.9902 57.6699 12.2297 56.7318 12.2297C55.7937 12.2297 55.0332 12.9902 55.0332 13.9283C55.0332 14.8664 55.7937 15.6269 56.7318 15.6269Z" fill="#272123"/>
</g>
<defs>
<clipPath id="clip0_619_1613">
<rect width="163.062" height="94.4401" fill="white"/>
</clipPath>
</defs>
</svg>
